<svg version="1.2" xmlns="http://www.w3.org/2000/svg" viewBox="0 0 140 140" width="140" height="140"><style>.a{fill:none;stroke:#2f2ce9;stroke-miterlimit:10;stroke-width:16}.b{fill:none;stroke:#2f2ce9;stroke-miterlimit:10;stroke-width:7}.c{fill:#2f2ce9}</style><path fill-rule="evenodd" class="a" d="m21.4 90.4l-1-50.5c0 0-1.3-22.5 17.7-21.2 22.2 1.6 27.5 34.7 37.4 68m46.2-38.5"/><path fill-rule="evenodd" class="b" d="m21.1 120.8c-9.3 0-16.8-7.5-16.8-16.8 0-9.3 7.5-16.8 16.8-16.8 9.3 0 16.8 7.5 16.8 16.8 0 9.3-7.5 16.8-16.8 16.8z"/><path fill-rule="evenodd" class="a" d="m119.8 49.2l1 50.5c0 0 1.3 22.5-17.6 21.2-22.2-1.6-27.6-34.7-37.5-68m-46.2 38.5"/><path fill-rule="evenodd" class="c" d="m119.4 60.8c-10.8 0-19.5-8.8-19.5-19.6 0-10.8 8.7-19.6 19.5-19.6 10.9 0 19.6 8.8 19.6 19.6 0 10.8-8.7 19.6-19.6 19.6z"/></svg>