<?xml version="1.0" encoding="UTF-8" standalone="no"?><!DOCTYPE svg PUBLIC "-//W3C//DTD SVG 1.1//EN" "http://www.w3.org/Graphics/SVG/1.1/DTD/svg11.dtd"><svg width="100%" height="100%" viewBox="0 0 24 8" version="1.1" xmlns="http://www.w3.org/2000/svg" xmlns:xlink="http://www.w3.org/1999/xlink" xml:space="preserve" xmlns:serif="http://www.serif.com/" style="fill-rule:evenodd;clip-rule:evenodd;stroke-linejoin:round;stroke-miterlimit:2;"><g><path d="M1.378,5.899c-0.173,0 -0.294,-0.032 -0.364,-0.095c-0.07,-0.063 -0.105,-0.169 -0.105,-0.319l0,-3.731c0.051,-0.065 0.127,-0.117 0.227,-0.154c0.1,-0.037 0.211,-0.056 0.332,-0.056c0.145,0 0.274,0.026 0.389,0.077c0.114,0.051 0.216,0.154 0.304,0.308l1.008,1.813c0.093,0.168 0.183,0.342 0.269,0.522c0.086,0.18 0.162,0.344 0.228,0.494l0.028,-0.007c-0.023,-0.275 -0.038,-0.543 -0.046,-0.802c-0.007,-0.259 -0.01,-0.514 -0.01,-0.766l0,-1.589c0.037,-0.009 0.094,-0.02 0.171,-0.032c0.077,-0.012 0.155,-0.017 0.234,-0.017c0.173,0 0.295,0.031 0.368,0.094c0.072,0.063 0.109,0.169 0.109,0.319l0,3.78c-0.051,0.051 -0.125,0.091 -0.221,0.119c-0.096,0.028 -0.209,0.042 -0.34,0.042c-0.14,0 -0.267,-0.025 -0.381,-0.074c-0.114,-0.049 -0.216,-0.15 -0.304,-0.304l-1.008,-1.813c-0.093,-0.163 -0.183,-0.337 -0.27,-0.521c-0.086,-0.184 -0.162,-0.351 -0.228,-0.501l-0.042,0.007c0.023,0.257 0.038,0.52 0.045,0.791c0.007,0.271 0.011,0.527 0.011,0.77l0,1.589c-0.037,0.009 -0.093,0.021 -0.168,0.035c-0.075,0.014 -0.154,0.021 -0.238,0.021Z" style="fill:#fff;fill-rule:nonzero;"/><path d="M5.942,4.59c0.065,0.238 0.187,0.411 0.364,0.518c0.177,0.107 0.397,0.161 0.658,0.161c0.196,0 0.377,-0.029 0.542,-0.087c0.166,-0.058 0.3,-0.12 0.402,-0.186c0.065,0.037 0.119,0.089 0.161,0.154c0.042,0.065 0.063,0.135 0.063,0.21c0,0.093 -0.031,0.176 -0.095,0.249c-0.063,0.072 -0.149,0.134 -0.259,0.185c-0.11,0.051 -0.239,0.091 -0.389,0.119c-0.149,0.028 -0.31,0.042 -0.483,0.042c-0.275,0 -0.526,-0.037 -0.753,-0.112c-0.226,-0.075 -0.42,-0.188 -0.581,-0.339c-0.161,-0.152 -0.287,-0.34 -0.378,-0.564c-0.091,-0.224 -0.136,-0.485 -0.136,-0.784c0,-0.289 0.044,-0.541 0.133,-0.756c0.089,-0.215 0.209,-0.394 0.36,-0.539c0.152,-0.145 0.328,-0.252 0.529,-0.322c0.201,-0.07 0.413,-0.105 0.637,-0.105c0.229,0 0.439,0.036 0.63,0.108c0.191,0.072 0.355,0.173 0.49,0.301c0.135,0.128 0.241,0.282 0.318,0.462c0.077,0.18 0.116,0.374 0.116,0.584c0,0.131 -0.034,0.229 -0.101,0.294c-0.068,0.065 -0.162,0.107 -0.284,0.126l-1.946,0.28Zm0.777,-1.491c-0.229,0 -0.42,0.076 -0.574,0.228c-0.154,0.152 -0.24,0.367 -0.259,0.647l1.554,-0.231c-0.019,-0.173 -0.086,-0.323 -0.203,-0.451c-0.117,-0.128 -0.289,-0.193 -0.518,-0.193Z" style="fill:#fff;fill-rule:nonzero;"/><path d="M11.947,4.191c0,0.271 -0.041,0.514 -0.123,0.731c-0.082,0.217 -0.197,0.403 -0.346,0.556c-0.149,0.154 -0.329,0.272 -0.539,0.354c-0.21,0.082 -0.446,0.122 -0.707,0.122c-0.261,0 -0.497,-0.041 -0.707,-0.122c-0.21,-0.082 -0.39,-0.198 -0.539,-0.35c-0.149,-0.152 -0.265,-0.336 -0.347,-0.553c-0.082,-0.217 -0.123,-0.463 -0.123,-0.739c0,-0.271 0.041,-0.514 0.123,-0.732c0.082,-0.217 0.198,-0.401 0.35,-0.553c0.152,-0.152 0.333,-0.268 0.543,-0.35c0.21,-0.082 0.443,-0.123 0.7,-0.123c0.257,0 0.49,0.041 0.7,0.123c0.21,0.082 0.391,0.2 0.542,0.354c0.152,0.154 0.268,0.339 0.35,0.556c0.082,0.217 0.123,0.458 0.123,0.724Zm-1.715,-1.057c-0.252,0 -0.45,0.092 -0.595,0.277c-0.145,0.184 -0.217,0.444 -0.217,0.78c0,0.341 0.071,0.602 0.213,0.784c0.142,0.182 0.342,0.273 0.598,0.273c0.257,0 0.456,-0.092 0.598,-0.277c0.142,-0.184 0.213,-0.444 0.213,-0.78c0,-0.336 -0.072,-0.596 -0.217,-0.78c-0.145,-0.184 -0.343,-0.277 -0.595,-0.277Z" style="fill:#fff;fill-rule:nonzero;"/><path d="M13.277,4.821c0,0.149 0.046,0.257 0.136,0.322c0.091,0.065 0.218,0.098 0.382,0.098c0.079,0 0.16,-0.009 0.241,-0.028c0.082,-0.019 0.155,-0.042 0.221,-0.07c0.037,0.037 0.069,0.083 0.095,0.136c0.026,0.054 0.039,0.115 0.039,0.186c0,0.14 -0.063,0.255 -0.189,0.346c-0.126,0.091 -0.329,0.136 -0.609,0.136c-0.369,0 -0.659,-0.083 -0.871,-0.248c-0.212,-0.166 -0.319,-0.44 -0.319,-0.822l0,-3.213c0.037,-0.009 0.092,-0.021 0.164,-0.035c0.072,-0.014 0.151,-0.021 0.235,-0.021c0.163,0 0.284,0.03 0.361,0.091c0.077,0.061 0.116,0.168 0.115,0.322l0,0.581l1.029,0c0.023,0.037 0.044,0.086 0.063,0.147c0.019,0.061 0.028,0.126 0.028,0.196c0,0.121 -0.028,0.21 -0.084,0.266c-0.056,0.056 -0.131,0.084 -0.224,0.084l-0.812,0l0,1.526Z" style="fill:#fff;fill-rule:nonzero;"/><path d="M18.01,4.191c0,0.271 -0.041,0.514 -0.123,0.731c-0.082,0.217 -0.197,0.403 -0.346,0.556c-0.149,0.154 -0.329,0.272 -0.539,0.354c-0.21,0.082 -0.446,0.122 -0.707,0.122c-0.261,0 -0.497,-0.041 -0.707,-0.122c-0.21,-0.082 -0.39,-0.198 -0.539,-0.35c-0.149,-0.152 -0.265,-0.336 -0.346,-0.553c-0.082,-0.217 -0.123,-0.463 -0.123,-0.739c0,-0.271 0.041,-0.514 0.123,-0.732c0.082,-0.217 0.198,-0.401 0.35,-0.553c0.152,-0.152 0.333,-0.268 0.543,-0.35c0.21,-0.082 0.443,-0.123 0.7,-0.123c0.257,0 0.49,0.041 0.7,0.123c0.21,0.082 0.391,0.2 0.543,0.354c0.152,0.154 0.268,0.339 0.35,0.556c0.082,0.217 0.123,0.458 0.123,0.724Zm-1.715,-1.057c-0.252,0 -0.45,0.092 -0.595,0.277c-0.145,0.184 -0.217,0.444 -0.217,0.78c0,0.341 0.071,0.602 0.213,0.784c0.142,0.182 0.342,0.273 0.599,0.273c0.257,0 0.456,-0.092 0.598,-0.277c0.142,-0.184 0.213,-0.444 0.213,-0.78c0,-0.336 -0.072,-0.596 -0.217,-0.78c-0.145,-0.184 -0.343,-0.277 -0.595,-0.277Z" style="fill:#fff;fill-rule:nonzero;"/><path d="M21.72,4.191c0,0.271 -0.041,0.514 -0.122,0.731c-0.082,0.217 -0.197,0.403 -0.346,0.556c-0.149,0.154 -0.329,0.272 -0.539,0.354c-0.21,0.082 -0.446,0.122 -0.707,0.122c-0.261,0 -0.497,-0.041 -0.707,-0.122c-0.21,-0.082 -0.39,-0.198 -0.539,-0.35c-0.149,-0.152 -0.265,-0.336 -0.347,-0.553c-0.082,-0.217 -0.122,-0.463 -0.122,-0.739c0,-0.271 0.041,-0.514 0.122,-0.732c0.082,-0.217 0.198,-0.401 0.35,-0.553c0.152,-0.152 0.332,-0.268 0.542,-0.35c0.21,-0.082 0.443,-0.123 0.7,-0.123c0.257,0 0.49,0.041 0.7,0.123c0.21,0.082 0.391,0.2 0.542,0.354c0.152,0.154 0.268,0.339 0.35,0.556c0.082,0.217 0.122,0.458 0.122,0.724Zm-1.715,-1.057c-0.252,0 -0.45,0.092 -0.595,0.277c-0.145,0.184 -0.217,0.444 -0.217,0.78c0,0.341 0.071,0.602 0.213,0.784c0.142,0.182 0.342,0.273 0.599,0.273c0.257,0 0.456,-0.092 0.599,-0.277c0.142,-0.184 0.214,-0.444 0.214,-0.78c0,-0.336 -0.072,-0.596 -0.217,-0.78c-0.145,-0.184 -0.343,-0.277 -0.595,-0.277Z" style="fill:#fff;fill-rule:nonzero;"/><path d="M23.091,5.843c-0.037,0.009 -0.092,0.021 -0.165,0.035c-0.072,0.014 -0.15,0.021 -0.234,0.021c-0.168,0 -0.291,-0.03 -0.367,-0.091c-0.077,-0.061 -0.116,-0.168 -0.116,-0.322l0,-4.186c0.037,-0.014 0.092,-0.027 0.165,-0.038c0.072,-0.012 0.151,-0.018 0.234,-0.018c0.168,0 0.291,0.03 0.367,0.091c0.077,0.061 0.116,0.168 0.116,0.322l0,4.186Z" style="fill:#fff;fill-rule:nonzero;"/></g></svg>