<svg version="1.2" xmlns="http://www.w3.org/2000/svg" viewBox="0 0 151 143" width="151" height="143">
	<title>Novo Projeto</title>
	<style>
		.s0 { fill: none;stroke: #2f2ce9;stroke-miterlimit:10;stroke-width: 16 } 
		.s1 { fill: none;stroke: #2f2ce9;stroke-miterlimit:10;stroke-width: 7 } 
		.s2 { fill: #2f2ce9 } 
	</style>
	<g id="Layer 1">
		<path id="Forma 2" fill-rule="evenodd" class="s0" d="m22.25 103.06l-1.06-71.93c0 0-1.38-23.98 18.82-22.55 23.65 1.68 29.39 37.01 39.91 72.51 14.57 49.12 41.08 43.02 41.01 42.95 11.13-2.67 7.72-7.89 8.23-84.07"/>
		<path id="Forma 1" fill-rule="evenodd" class="s1" d="m21.91 139.09c-9.9 0-17.91-8.01-17.91-17.91 0-9.91 8.01-17.91 17.91-17.91 9.9 0 17.91 8 17.91 17.91 0 9.9-8.01 17.91-17.91 17.91z"/>
		<path id="Forma 1 copy" fill-rule="evenodd" class="s2" d="m129.14 53.39c-11.53 0-20.85-9.32-20.85-20.86 0-11.53 9.32-20.85 20.85-20.85 11.54 0 20.86 9.32 20.86 20.85 0 11.54-9.32 20.86-20.86 20.86z"/>
	</g>
</svg>