<?xml version="1.0" encoding="UTF-8" standalone="no"?>
<!DOCTYPE svg PUBLIC "-//W3C//DTD SVG 1.1//EN" "http://www.w3.org/Graphics/SVG/1.1/DTD/svg11.dtd">
<svg width="100%" height="100%" viewBox="0 0 100 30" version="1.1" xmlns="http://www.w3.org/2000/svg" xmlns:xlink="http://www.w3.org/1999/xlink" xml:space="preserve" xmlns:serif="http://www.serif.com/" style="fill-rule:evenodd;clip-rule:evenodd;stroke-linejoin:round;stroke-miterlimit:2;">
    <g transform="matrix(0.545664,0,0,0.518174,-2.279642,17.040961)">
        <path d="M34.759,11.136C34.293,11.603 33.618,11.961 32.734,12.211C31.851,12.461 30.793,12.586 29.559,12.586C28.326,12.586 27.159,12.403 26.059,12.036C24.959,11.67 24.059,10.786 23.359,9.386L18.409,-0.714C17.909,-1.747 17.459,-2.722 17.059,-3.639C16.659,-4.555 16.226,-5.614 15.759,-6.814L15.459,-6.764C15.593,-4.964 15.668,-3.13 15.684,-1.264C15.701,0.603 15.709,2.436 15.709,4.236L15.709,11.986C15.343,12.086 14.784,12.186 14.034,12.286C13.284,12.386 12.543,12.436 11.809,12.436C11.076,12.436 10.426,12.386 9.859,12.286C9.293,12.186 8.826,11.986 8.459,11.686C8.093,11.386 7.809,10.978 7.609,10.461C7.409,9.945 7.309,9.27 7.309,8.436L7.309,-16.564C7.776,-17.23 8.493,-17.73 9.459,-18.064C10.426,-18.397 11.459,-18.564 12.559,-18.564C13.793,-18.564 14.968,-18.372 16.084,-17.989C17.201,-17.605 18.093,-16.73 18.759,-15.364L23.759,-5.264C24.259,-4.23 24.709,-3.255 25.109,-2.339C25.509,-1.422 25.943,-0.364 26.409,0.836L26.659,0.786C26.526,-1.014 26.443,-2.814 26.409,-4.614C26.376,-6.414 26.359,-8.214 26.359,-10.014L26.359,-18.114C26.726,-18.214 27.284,-18.314 28.034,-18.414C28.784,-18.514 29.526,-18.564 30.259,-18.564C31.726,-18.564 32.843,-18.305 33.609,-17.789C34.376,-17.272 34.759,-16.197 34.759,-14.564L34.759,11.136Z" style="fill:white;fill-rule:nonzero;"/>
        <path d="M53.459,12.986C51.493,12.986 49.668,12.711 47.984,12.161C46.301,11.611 44.834,10.786 43.584,9.686C42.334,8.586 41.351,7.203 40.634,5.536C39.918,3.87 39.559,1.92 39.559,-0.314C39.559,-2.514 39.918,-4.405 40.634,-5.989C41.351,-7.572 42.293,-8.872 43.459,-9.889C44.626,-10.905 45.959,-11.655 47.459,-12.139C48.959,-12.622 50.493,-12.864 52.059,-12.864C53.826,-12.864 55.434,-12.597 56.884,-12.064C58.334,-11.53 59.584,-10.797 60.634,-9.864C61.684,-8.93 62.501,-7.814 63.084,-6.514C63.668,-5.214 63.959,-3.797 63.959,-2.264C63.959,-1.13 63.643,-0.264 63.009,0.336C62.376,0.936 61.493,1.32 60.359,1.486L48.009,3.336C48.376,4.436 49.126,5.261 50.259,5.811C51.393,6.361 52.693,6.636 54.159,6.636C55.526,6.636 56.818,6.461 58.034,6.111C59.251,5.761 60.243,5.353 61.009,4.886C61.543,5.22 61.993,5.686 62.359,6.286C62.726,6.886 62.909,7.52 62.909,8.186C62.909,9.686 62.209,10.803 60.809,11.536C59.743,12.103 58.543,12.486 57.209,12.686C55.876,12.886 54.626,12.986 53.459,12.986ZM52.059,-6.664C51.259,-6.664 50.568,-6.53 49.984,-6.264C49.401,-5.997 48.926,-5.655 48.559,-5.239C48.193,-4.822 47.918,-4.355 47.734,-3.839C47.551,-3.322 47.443,-2.797 47.409,-2.264L55.959,-3.664C55.859,-4.33 55.493,-4.997 54.859,-5.664C54.226,-6.33 53.293,-6.664 52.059,-6.664Z" style="fill:white;fill-rule:nonzero;"/>
        <path d="M93.209,0.036C93.209,2.103 92.893,3.945 92.259,5.561C91.626,7.178 90.734,8.536 89.584,9.636C88.434,10.736 87.059,11.57 85.459,12.136C83.859,12.703 82.076,12.986 80.109,12.986C78.143,12.986 76.359,12.686 74.759,12.086C73.159,11.486 71.784,10.628 70.634,9.511C69.484,8.395 68.593,7.036 67.959,5.436C67.326,3.836 67.009,2.036 67.009,0.036C67.009,-1.93 67.326,-3.714 67.959,-5.314C68.593,-6.914 69.484,-8.272 70.634,-9.389C71.784,-10.505 73.159,-11.364 74.759,-11.964C76.359,-12.564 78.143,-12.864 80.109,-12.864C82.076,-12.864 83.859,-12.555 85.459,-11.939C87.059,-11.322 88.434,-10.455 89.584,-9.339C90.734,-8.222 91.626,-6.864 92.259,-5.264C92.893,-3.664 93.209,-1.897 93.209,0.036ZM75.709,0.036C75.709,2.07 76.101,3.628 76.884,4.711C77.668,5.795 78.759,6.336 80.159,6.336C81.559,6.336 82.634,5.786 83.384,4.686C84.134,3.586 84.509,2.036 84.509,0.036C84.509,-1.964 84.126,-3.505 83.359,-4.589C82.593,-5.672 81.509,-6.214 80.109,-6.214C78.709,-6.214 77.626,-5.672 76.859,-4.589C76.093,-3.505 75.709,-1.964 75.709,0.036Z" style="fill:white;fill-rule:nonzero;"/>
        <path d="M105.859,3.836C105.859,4.703 106.134,5.32 106.684,5.686C107.234,6.053 108.009,6.236 109.009,6.236C109.509,6.236 110.026,6.195 110.559,6.111C111.093,6.028 111.559,5.92 111.959,5.786C112.259,6.153 112.518,6.561 112.734,7.011C112.951,7.461 113.059,8.003 113.059,8.636C113.059,9.903 112.584,10.936 111.634,11.736C110.684,12.536 109.009,12.936 106.609,12.936C103.676,12.936 101.418,12.27 99.834,10.936C98.251,9.603 97.459,7.436 97.459,4.436L97.459,-16.964C97.826,-17.064 98.351,-17.172 99.034,-17.289C99.718,-17.405 100.443,-17.464 101.209,-17.464C102.676,-17.464 103.818,-17.205 104.634,-16.689C105.451,-16.172 105.859,-15.08 105.859,-13.414L105.859,-10.214L112.409,-10.214C112.609,-9.847 112.801,-9.389 112.984,-8.839C113.168,-8.289 113.259,-7.68 113.259,-7.014C113.259,-5.847 113.001,-5.005 112.484,-4.489C111.968,-3.972 111.276,-3.714 110.409,-3.714L105.859,-3.714L105.859,3.836Z" style="fill:white;fill-rule:nonzero;"/>
        <path d="M142.209,0.036C142.209,2.103 141.893,3.945 141.259,5.561C140.626,7.178 139.734,8.536 138.584,9.636C137.434,10.736 136.059,11.57 134.459,12.136C132.859,12.703 131.076,12.986 129.109,12.986C127.143,12.986 125.359,12.686 123.759,12.086C122.159,11.486 120.784,10.628 119.634,9.511C118.484,8.395 117.593,7.036 116.959,5.436C116.326,3.836 116.009,2.036 116.009,0.036C116.009,-1.93 116.326,-3.714 116.959,-5.314C117.593,-6.914 118.484,-8.272 119.634,-9.389C120.784,-10.505 122.159,-11.364 123.759,-11.964C125.359,-12.564 127.143,-12.864 129.109,-12.864C131.076,-12.864 132.859,-12.555 134.459,-11.939C136.059,-11.322 137.434,-10.455 138.584,-9.339C139.734,-8.222 140.626,-6.864 141.259,-5.264C141.893,-3.664 142.209,-1.897 142.209,0.036ZM124.709,0.036C124.709,2.07 125.101,3.628 125.884,4.711C126.668,5.795 127.759,6.336 129.159,6.336C130.559,6.336 131.634,5.786 132.384,4.686C133.134,3.586 133.509,2.036 133.509,0.036C133.509,-1.964 133.126,-3.505 132.359,-4.589C131.593,-5.672 130.509,-6.214 129.109,-6.214C127.709,-6.214 126.626,-5.672 125.859,-4.589C125.093,-3.505 124.709,-1.964 124.709,0.036Z" style="fill:white;fill-rule:nonzero;"/>
        <path d="M171.509,0.036C171.509,2.103 171.193,3.945 170.559,5.561C169.926,7.178 169.034,8.536 167.884,9.636C166.734,10.736 165.359,11.57 163.759,12.136C162.159,12.703 160.376,12.986 158.409,12.986C156.443,12.986 154.659,12.686 153.059,12.086C151.459,11.486 150.084,10.628 148.934,9.511C147.784,8.395 146.893,7.036 146.259,5.436C145.626,3.836 145.309,2.036 145.309,0.036C145.309,-1.93 145.626,-3.714 146.259,-5.314C146.893,-6.914 147.784,-8.272 148.934,-9.389C150.084,-10.505 151.459,-11.364 153.059,-11.964C154.659,-12.564 156.443,-12.864 158.409,-12.864C160.376,-12.864 162.159,-12.555 163.759,-11.939C165.359,-11.322 166.734,-10.455 167.884,-9.339C169.034,-8.222 169.926,-6.864 170.559,-5.264C171.193,-3.664 171.509,-1.897 171.509,0.036ZM154.009,0.036C154.009,2.07 154.401,3.628 155.184,4.711C155.968,5.795 157.059,6.336 158.459,6.336C159.859,6.336 160.934,5.786 161.684,4.686C162.434,3.586 162.809,2.036 162.809,0.036C162.809,-1.964 162.426,-3.505 161.659,-4.589C160.893,-5.672 159.809,-6.214 158.409,-6.214C157.009,-6.214 155.926,-5.672 155.159,-4.589C154.393,-3.505 154.009,-1.964 154.009,0.036Z" style="fill:white;fill-rule:nonzero;"/>
        <path d="M184.309,12.136C183.943,12.203 183.401,12.295 182.684,12.411C181.968,12.528 181.243,12.586 180.509,12.586C179.776,12.586 179.118,12.536 178.534,12.436C177.951,12.336 177.459,12.136 177.059,11.836C176.659,11.536 176.351,11.128 176.134,10.611C175.918,10.095 175.809,9.42 175.809,8.586L175.809,-20.414C176.176,-20.48 176.718,-20.572 177.434,-20.689C178.151,-20.805 178.876,-20.864 179.609,-20.864C180.343,-20.864 181.001,-20.814 181.584,-20.714C182.168,-20.614 182.659,-20.414 183.059,-20.114C183.459,-19.814 183.768,-19.405 183.984,-18.889C184.201,-18.372 184.309,-17.697 184.309,-16.864L184.309,12.136Z" style="fill:white;fill-rule:nonzero;"/>
    </g>
</svg>
